<?xml version="1.0" encoding="UTF-8" standalone="no"?>
<!-- Created with Inkscape (http://www.inkscape.org/) -->

<svg
   xmlns:dc="http://purl.org/dc/elements/1.1/"
   xmlns:cc="http://creativecommons.org/ns#"
   xmlns:rdf="http://www.w3.org/1999/02/22-rdf-syntax-ns#"
   xmlns:svg="http://www.w3.org/2000/svg"
   xmlns="http://www.w3.org/2000/svg"
   xmlns:sodipodi="http://sodipodi.sourceforge.net/DTD/sodipodi-0.dtd"
   xmlns:inkscape="http://www.inkscape.org/namespaces/inkscape"
   width="24mm"
   height="24mm"
   viewBox="0 0 85.039371 85.039375"
   id="svg2"
   version="1.1"
   inkscape:version="0.91 r13725"
   sodipodi:docname="favicon.svg"
   inkscape:export-filename="E:\Repositories\opplive\img\favicon.png"
   inkscape:export-xdpi="33.866669"
   inkscape:export-ydpi="33.866669">
  <defs
     id="defs4" />
  <sodipodi:namedview
     id="base"
     pagecolor="#ffffff"
     bordercolor="#666666"
     borderopacity="1.0"
     inkscape:pageopacity="0.0"
     inkscape:pageshadow="2"
     inkscape:zoom="2"
     inkscape:cx="75.48201"
     inkscape:cy="98.647843"
     inkscape:document-units="px"
     inkscape:current-layer="layer1"
     showgrid="false"
     showguides="true"
     inkscape:guide-bbox="true"
     fit-margin-top="0"
     fit-margin-left="0"
     fit-margin-right="0"
     fit-margin-bottom="0"
     inkscape:window-width="1920"
     inkscape:window-height="1017"
     inkscape:window-x="1912"
     inkscape:window-y="-8"
     inkscape:window-maximized="1" />
  <metadata
     id="metadata7">
    <rdf:RDF>
      <cc:Work
         rdf:about="">
        <dc:format>image/svg+xml</dc:format>
        <dc:type
           rdf:resource="http://purl.org/dc/dcmitype/StillImage" />
        <dc:title></dc:title>
      </cc:Work>
    </rdf:RDF>
  </metadata>
  <g
     inkscape:label="Layer 1"
     inkscape:groupmode="layer"
     id="layer1"
     transform="translate(-29.491932,90.388097)">
    <path
       d="m 57.898663,-13.386392 0,-36.179999 -7.29,0 0,-7.74 24.21,0 q 6.57,0.09 10.08,0.99 3.6,0.9 6.57,3.24 4.41,3.51 6.39,8.64 2.07,5.04 2.339997,10.44 0.09,0.45 0.09,0.99 0,0.45 0,0.9 0,12.78 -6.389997,19.62 -6.3,6.8399994 -19.35,6.8399994 l -23.94,0 0,-7.7399994 7.29,0 0,0 z m 8.46,-36.179999 0,36.179999 8.19,0 q 9.27,0.09 13.05,-4.859999 3.87,-4.95 3.87,-13.77 0,-2.97 -0.54,-5.4 -0.45,-2.43 -1.53,-4.68 -2.07,-4.32 -5.13,-5.85 -2.97,-1.53 -9.36,-1.53 l -8.55,-0.09 0,0 z"
       style="font-style:normal;font-variant:normal;font-weight:100;font-stretch:normal;font-size:90px;line-height:125%;font-family:Courier;-inkscape-font-specification:'Courier Thin';letter-spacing:0px;word-spacing:0px;writing-mode:lr-tb;fill:#001e82;fill-opacity:1;stroke:none;stroke-width:1px;stroke-linecap:butt;stroke-linejoin:miter;stroke-opacity:1"
       id="path4177"
       inkscape:connector-curvature="0" />
    <path
       style="fill:none;fill-rule:evenodd;stroke:#001e82;stroke-width:3.5433073;stroke-linecap:butt;stroke-linejoin:miter;stroke-miterlimit:4;stroke-dasharray:none;stroke-opacity:1"
       d="m 62.242387,-56.092729 0.06538,-19.988242"
       id="path4160-7-8"
       inkscape:connector-curvature="0"
       sodipodi:nodetypes="cc" />
    <path
       style="fill:#001e82;fill-opacity:1;stroke:none;stroke-width:0.9375;stroke-miterlimit:4;stroke-dasharray:none;stroke-dashoffset:0;stroke-opacity:1"
       d="m 67.270464,-78.586657 a 4.9999999,5.0000004 0 0 1 -5,5.000001 4.9999999,5.0000004 0 0 1 -5.000001,-5.000001 4.9999999,5.0000004 0 0 1 5.000001,-5.000001 4.9999999,5.0000004 0 0 1 5,5.000001 z"
       id="path4164-2-5"
       inkscape:connector-curvature="0" />
    <path
       style="fill:none;fill-opacity:1;stroke:#001e82;stroke-width:1.06299222;stroke-miterlimit:4;stroke-dasharray:none;stroke-dashoffset:0;stroke-opacity:1"
       d="m 66.880403,-85.587141 a 7.986942,7.4497663 0 0 1 5.255248,7.00049 7.986942,7.4497663 0 0 1 -5.255248,7.00049"
       id="path4170-1-3"
       inkscape:connector-curvature="0" />
    <path
       style="fill:none;fill-opacity:1;stroke:#001e82;stroke-width:1.06299222;stroke-miterlimit:4;stroke-dasharray:none;stroke-dashoffset:0;stroke-opacity:1"
       d="m 57.210039,-85.587141 a 7.986942,7.4497663 0 0 0 -5.255248,7.00049 7.986942,7.4497663 0 0 0 5.255248,7.00049"
       id="path4170-6-2-0"
       inkscape:connector-curvature="0" />
    <path
       style="fill:none;fill-opacity:1;stroke:#001e82;stroke-width:1.06299222;stroke-miterlimit:4;stroke-dasharray:none;stroke-dashoffset:0;stroke-opacity:1"
       d="m 52.602099,-89.586651 a 12.669125,11.705924 0 0 0 -8.33603,10.999972 12.669125,11.705924 0 0 0 8.33603,10.999971"
       id="path4170-6-3-7-8"
       inkscape:connector-curvature="0" />
    <path
       style="fill:none;fill-opacity:1;stroke:#001e82;stroke-width:1.06299222;stroke-miterlimit:4;stroke-dasharray:none;stroke-dashoffset:0;stroke-opacity:1"
       d="m 71.488964,-89.586651 a 12.669125,11.705924 0 0 1 8.33603,10.999972 12.669125,11.705924 0 0 1 -8.33603,10.999971"
       id="path4170-6-3-2-2-4"
       inkscape:connector-curvature="0" />
  </g>
</svg>
