<?xml version="1.0" encoding="UTF-8" standalone="no"?>
<!-- Created with Inkscape (http://www.inkscape.org/) -->

<svg
   xmlns:dc="http://purl.org/dc/elements/1.1/"
   xmlns:cc="http://creativecommons.org/ns#"
   xmlns:rdf="http://www.w3.org/1999/02/22-rdf-syntax-ns#"
   xmlns:svg="http://www.w3.org/2000/svg"
   xmlns="http://www.w3.org/2000/svg"
   xmlns:sodipodi="http://sodipodi.sourceforge.net/DTD/sodipodi-0.dtd"
   xmlns:inkscape="http://www.inkscape.org/namespaces/inkscape"
   width="64mm"
   height="64mm"
   viewBox="0 0 226.77166 226.77167"
   id="svg2"
   version="1.1"
   inkscape:version="0.91 r13725"
   sodipodi:docname="favicon2.svg"
   inkscape:export-filename="E:\Repositories\opplive\img\favicon.png"
   inkscape:export-xdpi="300"
   inkscape:export-ydpi="300">
  <defs
     id="defs4" />
  <sodipodi:namedview
     id="base"
     pagecolor="#ffffff"
     bordercolor="#666666"
     borderopacity="1.0"
     inkscape:pageopacity="0.0"
     inkscape:pageshadow="2"
     inkscape:zoom="1.4142136"
     inkscape:cx="57.856221"
     inkscape:cy="168.49204"
     inkscape:document-units="px"
     inkscape:current-layer="layer1"
     showgrid="false"
     showguides="true"
     inkscape:guide-bbox="true"
     fit-margin-top="0"
     fit-margin-left="0"
     fit-margin-right="0"
     fit-margin-bottom="0"
     inkscape:window-width="1920"
     inkscape:window-height="1017"
     inkscape:window-x="1912"
     inkscape:window-y="-8"
     inkscape:window-maximized="1" />
  <metadata
     id="metadata7">
    <rdf:RDF>
      <cc:Work
         rdf:about="">
        <dc:format>image/svg+xml</dc:format>
        <dc:type
           rdf:resource="http://purl.org/dc/dcmitype/StillImage" />
        <dc:title></dc:title>
      </cc:Work>
    </rdf:RDF>
  </metadata>
  <g
     inkscape:label="Layer 1"
     inkscape:groupmode="layer"
     id="layer1"
     transform="translate(-29.491932,230.86038)">
    <path
       inkscape:connector-curvature="0"
       id="path4174"
       style="font-style:normal;font-variant:normal;font-weight:100;font-stretch:normal;font-size:205px;line-height:125%;font-family:Courier;-inkscape-font-specification:'Courier Thin';letter-spacing:0px;word-spacing:0px;fill:#001e82;fill-opacity:1;stroke:none;stroke-width:1px;stroke-linecap:butt;stroke-linejoin:miter;stroke-opacity:1"
       d="m 253.74263,-127.54792 0,19.35 -8.1,0 0,-11.61 -21.96,0 0,12.87 8.37,0 0,-6.21 8.1,0 0,20.070001 -8.1,0 0,-6.03 -8.37,0 0,15.480001 22.5,0 0,-11.700001 8.1,0 0,19.440001 -46.35,0 0,-7.74 7.29,0 0,-36.180002 -7.29,0 0,-7.74 45.81,0 0,0 z" />
    <path
       d="m 45.636987,-83.622532 0,-36.179998 -7.29,0 0,-7.74 24.21,0 q 6.57,0.09 10.08,0.99 3.6,0.9 6.57,3.24 4.41,3.51 6.39,8.64 2.07,5.04 2.34,10.44 0.09,0.45 0.09,0.99 0,0.45 0,0.9 0,12.779999 -6.39,19.619999 -6.3,6.839999 -19.35,6.839999 l -23.94,0 0,-7.739999 7.29,0 0,0 z m 8.46,-36.179998 0,36.179998 8.19,0 q 9.27,0.09 13.05,-4.859999 3.87,-4.95 3.87,-13.769999 0,-2.97 -0.54,-5.4 -0.45,-2.43 -1.53,-4.68 -2.07,-4.32 -5.13,-5.85 -2.97,-1.53 -9.36,-1.53 l -8.55,-0.09 0,0 z"
       style="font-style:normal;font-variant:normal;font-weight:100;font-stretch:normal;font-size:90px;line-height:125%;font-family:Courier;-inkscape-font-specification:'Courier Thin';letter-spacing:0px;word-spacing:0px;writing-mode:lr-tb;fill:#001e82;fill-opacity:1;stroke:none;stroke-width:1px;stroke-linecap:butt;stroke-linejoin:miter;stroke-opacity:1"
       id="path4177"
       inkscape:connector-curvature="0" />
    <path
       d="m 129.93183,-128.80253 8.28,1.8 -2.34,9.9 0.99,8.55 -8.55,0 q -0.63,-7.38 -2.7,-9.72 -2.07,-2.34 -8.19,-2.34 -4.95,0 -8.28,2.25 -3.24,2.16 -3.24,5.58 0,3.33 3.06,5.13 3.06,1.8 9.63,2.34 1.53,0.09 2.79,0.27 1.35,0.09 2.34,0.18 2.61,0.27 4.05,0.63 1.53,0.27 2.79,0.9 0.54,0.27 1.17,0.72 0.63,0.36 1.35,0.81 2.7,1.71 4.14,4.589998 1.44,2.79 1.44,6.21 0,7.11 -5.67,11.610001 -5.67,4.409999 -14.67,4.409999 -4.68,0 -8.1,-0.81 -3.33,-0.81 -5.85,-2.7 l -0.54,3.87 -8.37,-1.17 1.26,-8.28 -1.98,-9.54 8.19,-1.53 q 1.35,6.84 4.32,9.72 2.97,2.79 10.08,2.79 5.94,0 9.18,-2.07 3.33,-2.16 3.33,-5.94 0,-3.96 -3.42,-5.04 -3.42,-1.08 -8.1,-1.53 -1.08,-0.09 -2.16,-0.18 -1.08,-0.18 -2.16,-0.27 -1.8,-0.27 -3.6,-0.63 -1.71,-0.36 -3.33,-0.99 -4.14,-1.619998 -7.11,-5.129998 -2.88,-3.6 -2.88,-8.19 0,-6.66 5.76,-11.16 5.76,-4.59 14.22,-4.59 3.42,0 6.39,0.72 3.06,0.72 5.85,2.25 l 0.63,-3.42 0,0 z"
       style="font-style:normal;font-variant:normal;font-weight:100;font-stretch:normal;font-size:90px;line-height:125%;font-family:Courier;-inkscape-font-specification:'Courier Thin';letter-spacing:0px;word-spacing:0px;writing-mode:lr-tb;fill:#001e82;fill-opacity:1;stroke:none;stroke-width:1px;stroke-linecap:butt;stroke-linejoin:miter;stroke-opacity:1"
       id="path4179"
       inkscape:connector-curvature="0" />
    <path
       d="m 161.12667,-127.54253 10.26,27.45 10.26,-27.45 17.46,0 0,7.74 -5.76,0 0,36.179998 5.76,0 0,7.74 -23.67,0 0,-7.74 9.45,0 0,-31.769998 -10.62,27.719999 -5.85,0 -10.53,-27.719999 0,31.769999 9.36,0 0,7.739999 -22.77,0 0,-7.739999 4.95,0 0,-36.179999 -4.95,0 0,-7.74 16.65,0 0,0 z"
       style="font-style:normal;font-variant:normal;font-weight:100;font-stretch:normal;font-size:90px;line-height:125%;font-family:Courier;-inkscape-font-specification:'Courier Thin';letter-spacing:0px;word-spacing:0px;writing-mode:lr-tb;fill:#001e82;fill-opacity:1;stroke:none;stroke-width:1px;stroke-linecap:butt;stroke-linejoin:miter;stroke-opacity:1"
       id="path4181"
       inkscape:connector-curvature="0" />
    <path
       style="fill:none;fill-rule:evenodd;stroke:#001e82;stroke-width:3.5433073;stroke-linecap:butt;stroke-linejoin:miter;stroke-miterlimit:4;stroke-dasharray:none;stroke-opacity:1"
       d="m 49.980711,-126.32887 0.06538,-19.98824"
       id="path4160-7-8"
       inkscape:connector-curvature="0"
       sodipodi:nodetypes="cc" />
    <path
       style="fill:#001e82;fill-opacity:1;stroke:none;stroke-width:0.9375;stroke-miterlimit:4;stroke-dasharray:none;stroke-dashoffset:0;stroke-opacity:1"
       d="m 55.008788,-148.8228 a 4.9999999,5.0000004 0 0 1 -5,5.00001 4.9999999,5.0000004 0 0 1 -5.000001,-5.00001 4.9999999,5.0000004 0 0 1 5.000001,-5 4.9999999,5.0000004 0 0 1 5,5 z"
       id="path4164-2-5"
       inkscape:connector-curvature="0" />
    <path
       style="fill:none;fill-opacity:1;stroke:#001e82;stroke-width:1.06299222;stroke-miterlimit:4;stroke-dasharray:none;stroke-dashoffset:0;stroke-opacity:1"
       d="m 54.618727,-155.82328 a 7.986942,7.4497663 0 0 1 5.255248,7.00049 7.986942,7.4497663 0 0 1 -5.255248,7.00049"
       id="path4170-1-3"
       inkscape:connector-curvature="0" />
    <path
       style="fill:none;fill-opacity:1;stroke:#001e82;stroke-width:1.06299222;stroke-miterlimit:4;stroke-dasharray:none;stroke-dashoffset:0;stroke-opacity:1"
       d="m 44.948363,-155.82328 a 7.986942,7.4497663 0 0 0 -5.255248,7.00049 7.986942,7.4497663 0 0 0 5.255248,7.00049"
       id="path4170-6-2-0"
       inkscape:connector-curvature="0" />
    <path
       style="fill:none;fill-opacity:1;stroke:#001e82;stroke-width:1.06299222;stroke-miterlimit:4;stroke-dasharray:none;stroke-dashoffset:0;stroke-opacity:1"
       d="m 40.340423,-159.82279 a 12.669125,11.705924 0 0 0 -8.33603,10.99997 12.669125,11.705924 0 0 0 8.33603,10.99997"
       id="path4170-6-3-7-8"
       inkscape:connector-curvature="0" />
    <path
       style="fill:none;fill-opacity:1;stroke:#001e82;stroke-width:1.06299222;stroke-miterlimit:4;stroke-dasharray:none;stroke-dashoffset:0;stroke-opacity:1"
       d="m 59.227288,-159.82279 a 12.669125,11.705924 0 0 1 8.33603,10.99997 12.669125,11.705924 0 0 1 -8.33603,10.99997"
       id="path4170-6-3-2-2-4"
       inkscape:connector-curvature="0" />
  </g>
</svg>
